<svg
        aria-hidden="true"
        focusable="false"
        data-prefix="fal"
        data-icon="ellipsis-h"
        role="img"
        xmlns="http://www.w3.org/2000/svg"
        viewBox="0 0 320 512"
        class="svg-inline--fa fa-ellipsis-h fa-w-10 fa-fw fa-lg"
    >
        <path
            fill="rgb(108,120,141)"
            d="M192 256c0 17.7-14.3 32-32 32s-32-14.3-32-32 14.3-32 32-32 32 14.3 32 32zm88-32c-17.7 0-32 14.3-32 32s14.3 32 32 32 32-14.3 32-32-14.3-32-32-32zm-240 0c-17.7 0-32 14.3-32 32s14.3 32 32 32 32-14.3 32-32-14.3-32-32-32z"
        ></path>
</svg>
